<svg width="18" height="18" opacity="0.6" viewBox="0 0 361 361" fill="none" xmlns="http://www.w3.org/2000/svg">
<path fill-rule="evenodd" clip-rule="evenodd" d="M141 242C196.781 242 242 196.781 242 141C242 85.2192 196.781 40 141 40C85.2192 40 40 85.2192 40 141C40 196.781 85.2192 242 141 242ZM141 282C218.872 282 282 218.872 282 141C282 63.1279 218.872 0 141 0C63.1279 0 0 63.1279 0 141C0 218.872 63.1279 282 141 282Z" fill="#E7DFC6"/>
<path d="M354.564 354.564C346.753 362.374 334.09 362.374 326.279 354.564L199 227.284L227.284 199L354.564 326.279C362.374 334.09 362.374 346.753 354.564 354.564Z" fill="#E7DFC6"/>
</svg>
